<mxfile host="app.diagrams.net" agent="Mozilla/5.0 (Macintosh; Intel Mac OS X 10_15_7) AppleWebKit/605.1.15 (KHTML, like Gecko) Version/18.0.1 Safari/605.1.15" version="24.7.17">
  <diagram id="QJjx0-fPxzvcmYibJWj1" name="Page-1">
    <mxGraphModel dx="519" dy="297" grid="0" gridSize="10" guides="1" tooltips="1" connect="1" arrows="1" fold="1" page="1" pageScale="1" pageWidth="827" pageHeight="583" math="0" shadow="0">
      <root>
        <mxCell id="0" />
        <mxCell id="1" parent="0" />
        <mxCell id="E21WYbpWhwIhEI5-EvUI-31" value="" style="rounded=1;whiteSpace=wrap;html=1;dashed=1;fillColor=none;container=0;dashPattern=12 12;" parent="1" vertex="1">
          <mxGeometry x="24" y="31.880000000000003" width="487" height="167" as="geometry" />
        </mxCell>
        <mxCell id="4f-DMQIj-ya-iA7LCkDa-42" value="&lt;i&gt;n&lt;/i&gt;&amp;nbsp;x 50 x 768" style="text;html=1;strokeColor=none;fillColor=none;align=center;verticalAlign=middle;whiteSpace=wrap;rounded=0;container=0;" parent="1" vertex="1">
          <mxGeometry x="232" y="259.88" width="99" height="30" as="geometry" />
        </mxCell>
        <mxCell id="E21WYbpWhwIhEI5-EvUI-28" style="edgeStyle=orthogonalEdgeStyle;rounded=0;orthogonalLoop=1;jettySize=auto;html=1;exitX=1;exitY=0.5;exitDx=0;exitDy=0;entryX=0;entryY=0.5;entryDx=0;entryDy=0;" parent="1" source="E21WYbpWhwIhEI5-EvUI-3" target="E21WYbpWhwIhEI5-EvUI-4" edge="1">
          <mxGeometry relative="1" as="geometry" />
        </mxCell>
        <mxCell id="E21WYbpWhwIhEI5-EvUI-3" value="DNABERT-2" style="rounded=1;whiteSpace=wrap;html=1;textDirection=vertical-rl;fontStyle=1;fillColor=#f5f5f5;fontColor=#333333;strokeColor=none;container=0;" parent="1" vertex="1">
          <mxGeometry x="175" y="55.88" width="50" height="120" as="geometry" />
        </mxCell>
        <mxCell id="E21WYbpWhwIhEI5-EvUI-4" value="cfDNABERT-2" style="rounded=1;whiteSpace=wrap;html=1;textDirection=vertical-rl;fontStyle=1;fillColor=#f5f5f5;fontColor=#333333;strokeColor=none;container=0;" parent="1" vertex="1">
          <mxGeometry x="281" y="55.88" width="50" height="120" as="geometry" />
        </mxCell>
        <mxCell id="E21WYbpWhwIhEI5-EvUI-30" value="standard deviation of embedding" style="text;html=1;strokeColor=none;fillColor=none;align=left;verticalAlign=middle;whiteSpace=wrap;rounded=0;fontStyle=1;container=0;fontSize=9;" parent="1" vertex="1">
          <mxGeometry x="508" y="535.12" width="138" height="23.88" as="geometry" />
        </mxCell>
        <mxCell id="E21WYbpWhwIhEI5-EvUI-34" value="cfDNABERT-2" style="rounded=1;whiteSpace=wrap;html=1;textDirection=vertical-rl;fontStyle=1;fillColor=#f5f5f5;fontColor=#333333;strokeColor=none;container=0;" parent="1" vertex="1">
          <mxGeometry x="151" y="259.88" width="50" height="120" as="geometry" />
        </mxCell>
        <mxCell id="E21WYbpWhwIhEI5-EvUI-88" value="" style="group" parent="1" vertex="1" connectable="0">
          <mxGeometry x="32" y="259.88" width="108" height="120" as="geometry" />
        </mxCell>
        <mxCell id="E21WYbpWhwIhEI5-EvUI-89" value="" style="rounded=1;whiteSpace=wrap;html=1;textDirection=vertical-rl;fontStyle=1;fillColor=none;fontColor=#333333;strokeColor=default;movable=1;resizable=1;rotatable=1;deletable=1;editable=1;locked=0;connectable=1;" parent="E21WYbpWhwIhEI5-EvUI-88" vertex="1">
          <mxGeometry width="99" height="120" as="geometry" />
        </mxCell>
        <mxCell id="E21WYbpWhwIhEI5-EvUI-90" value="" style="shape=cube;whiteSpace=wrap;html=1;boundedLbl=1;backgroundOutline=1;darkOpacity=0.05;darkOpacity2=0.1;size=3;direction=east;flipH=1;fillColor=#dae8fc;strokeColor=#6c8ebf;movable=1;resizable=1;rotatable=1;deletable=1;editable=1;locked=0;connectable=1;dashed=1;dashPattern=1 4;" parent="E21WYbpWhwIhEI5-EvUI-88" vertex="1">
          <mxGeometry x="45" y="50" width="38" height="8" as="geometry" />
        </mxCell>
        <mxCell id="E21WYbpWhwIhEI5-EvUI-91" value="" style="shape=cube;whiteSpace=wrap;html=1;boundedLbl=1;backgroundOutline=1;darkOpacity=0.05;darkOpacity2=0.1;size=3;direction=east;flipH=1;fillColor=#dae8fc;strokeColor=#6c8ebf;movable=1;resizable=1;rotatable=1;deletable=1;editable=1;locked=0;connectable=1;dashed=1;dashPattern=1 4;" parent="E21WYbpWhwIhEI5-EvUI-88" vertex="1">
          <mxGeometry x="9" y="39" width="38" height="8" as="geometry" />
        </mxCell>
        <mxCell id="E21WYbpWhwIhEI5-EvUI-92" value="" style="shape=cube;whiteSpace=wrap;html=1;boundedLbl=1;backgroundOutline=1;darkOpacity=0.05;darkOpacity2=0.1;size=3;direction=east;flipH=1;fillColor=#dae8fc;strokeColor=#6c8ebf;movable=1;resizable=1;rotatable=1;deletable=1;editable=1;locked=0;connectable=1;dashed=1;dashPattern=1 4;" parent="E21WYbpWhwIhEI5-EvUI-88" vertex="1">
          <mxGeometry x="39" y="28" width="38" height="8" as="geometry" />
        </mxCell>
        <mxCell id="E21WYbpWhwIhEI5-EvUI-93" value="" style="shape=cube;whiteSpace=wrap;html=1;boundedLbl=1;backgroundOutline=1;darkOpacity=0.05;darkOpacity2=0.1;size=3;direction=east;flipH=1;fillColor=#dae8fc;strokeColor=#6c8ebf;movable=1;resizable=1;rotatable=1;deletable=1;editable=1;locked=0;connectable=1;dashed=1;dashPattern=1 4;" parent="E21WYbpWhwIhEI5-EvUI-88" vertex="1">
          <mxGeometry x="17" y="88" width="38" height="8" as="geometry" />
        </mxCell>
        <mxCell id="E21WYbpWhwIhEI5-EvUI-94" value="" style="shape=cube;whiteSpace=wrap;html=1;boundedLbl=1;backgroundOutline=1;darkOpacity=0.05;darkOpacity2=0.1;size=3;direction=east;flipH=1;fillColor=#dae8fc;strokeColor=#6c8ebf;movable=1;resizable=1;rotatable=1;deletable=1;editable=1;locked=0;connectable=1;dashed=1;dashPattern=1 4;" parent="E21WYbpWhwIhEI5-EvUI-88" vertex="1">
          <mxGeometry x="4" y="57" width="38" height="8" as="geometry" />
        </mxCell>
        <mxCell id="E21WYbpWhwIhEI5-EvUI-95" value="" style="shape=cube;whiteSpace=wrap;html=1;boundedLbl=1;backgroundOutline=1;darkOpacity=0.05;darkOpacity2=0.1;size=3;direction=east;flipH=1;fillColor=#dae8fc;strokeColor=#6c8ebf;movable=1;resizable=1;rotatable=1;deletable=1;editable=1;locked=0;connectable=1;dashed=1;dashPattern=1 4;" parent="E21WYbpWhwIhEI5-EvUI-88" vertex="1">
          <mxGeometry x="55" y="99" width="38" height="8" as="geometry" />
        </mxCell>
        <mxCell id="E21WYbpWhwIhEI5-EvUI-96" value="" style="shape=cube;whiteSpace=wrap;html=1;boundedLbl=1;backgroundOutline=1;darkOpacity=0.05;darkOpacity2=0.1;size=3;direction=east;flipH=1;fillColor=#dae8fc;strokeColor=#6c8ebf;movable=1;resizable=1;rotatable=1;deletable=1;editable=1;locked=0;connectable=1;dashed=1;dashPattern=1 4;" parent="E21WYbpWhwIhEI5-EvUI-88" vertex="1">
          <mxGeometry x="4" y="100" width="38" height="8" as="geometry" />
        </mxCell>
        <mxCell id="E21WYbpWhwIhEI5-EvUI-97" value="" style="shape=cube;whiteSpace=wrap;html=1;boundedLbl=1;backgroundOutline=1;darkOpacity=0.05;darkOpacity2=0.1;size=3;direction=east;flipH=1;fillColor=#dae8fc;strokeColor=#6c8ebf;movable=1;resizable=1;rotatable=1;deletable=1;editable=1;locked=0;connectable=1;dashed=1;dashPattern=1 4;" parent="E21WYbpWhwIhEI5-EvUI-88" vertex="1">
          <mxGeometry x="56" y="64" width="38" height="8" as="geometry" />
        </mxCell>
        <mxCell id="E21WYbpWhwIhEI5-EvUI-98" value="" style="shape=cube;whiteSpace=wrap;html=1;boundedLbl=1;backgroundOutline=1;darkOpacity=0.05;darkOpacity2=0.1;size=3;direction=east;flipH=1;fillColor=#dae8fc;strokeColor=#6c8ebf;movable=1;resizable=1;rotatable=1;deletable=1;editable=1;locked=0;connectable=1;dashed=1;dashPattern=1 4;" parent="E21WYbpWhwIhEI5-EvUI-88" vertex="1">
          <mxGeometry x="57" y="79" width="38" height="8" as="geometry" />
        </mxCell>
        <mxCell id="E21WYbpWhwIhEI5-EvUI-99" value="" style="shape=cube;whiteSpace=wrap;html=1;boundedLbl=1;backgroundOutline=1;darkOpacity=0.05;darkOpacity2=0.1;size=3;direction=east;flipH=1;fillColor=#dae8fc;strokeColor=#6c8ebf;movable=1;resizable=1;rotatable=1;deletable=1;editable=1;locked=0;connectable=1;dashed=1;dashPattern=1 4;" parent="E21WYbpWhwIhEI5-EvUI-88" vertex="1">
          <mxGeometry x="15" y="75" width="38" height="8" as="geometry" />
        </mxCell>
        <mxCell id="E21WYbpWhwIhEI5-EvUI-100" value="" style="shape=cube;whiteSpace=wrap;html=1;boundedLbl=1;backgroundOutline=1;darkOpacity=0.05;darkOpacity2=0.1;size=3;direction=east;flipH=1;fillColor=#dae8fc;strokeColor=#6c8ebf;movable=1;resizable=1;rotatable=1;deletable=1;editable=1;locked=0;connectable=1;dashed=1;dashPattern=1 4;" parent="E21WYbpWhwIhEI5-EvUI-88" vertex="1">
          <mxGeometry x="49" y="10" width="38" height="8" as="geometry" />
        </mxCell>
        <mxCell id="E21WYbpWhwIhEI5-EvUI-101" value="" style="shape=cube;whiteSpace=wrap;html=1;boundedLbl=1;backgroundOutline=1;darkOpacity=0.05;darkOpacity2=0.1;size=3;direction=east;flipH=1;fillColor=#dae8fc;strokeColor=#6c8ebf;movable=1;resizable=1;rotatable=1;deletable=1;editable=1;locked=0;connectable=1;dashed=1;dashPattern=1 4;" parent="E21WYbpWhwIhEI5-EvUI-88" vertex="1">
          <mxGeometry x="8" y="16" width="38" height="8" as="geometry" />
        </mxCell>
        <mxCell id="E21WYbpWhwIhEI5-EvUI-119" value="" style="shape=cube;whiteSpace=wrap;html=1;boundedLbl=1;backgroundOutline=1;darkOpacity=0.05;darkOpacity2=0.1;size=22;direction=east;flipH=1;fillColor=#f8cecc;strokeColor=#b85450;container=0;dashed=1;dashPattern=1 4;" parent="1" vertex="1">
          <mxGeometry x="233" y="285.88" width="70" height="70" as="geometry" />
        </mxCell>
        <mxCell id="E21WYbpWhwIhEI5-EvUI-124" value="&lt;i&gt;n&lt;/i&gt;&amp;nbsp;fragments" style="text;html=1;strokeColor=none;fillColor=none;align=center;verticalAlign=middle;whiteSpace=wrap;rounded=0;container=0;" parent="1" vertex="1">
          <mxGeometry x="35" y="236" width="99" height="30" as="geometry" />
        </mxCell>
        <mxCell id="E21WYbpWhwIhEI5-EvUI-127" value="Genomic Bin" style="text;html=1;strokeColor=none;fillColor=none;align=center;verticalAlign=middle;whiteSpace=wrap;rounded=0;container=0;textDirection=vertical-rl;rotation=-180;" parent="1" vertex="1">
          <mxGeometry x="10" y="269.88" width="25" height="93" as="geometry" />
        </mxCell>
        <mxCell id="E21WYbpWhwIhEI5-EvUI-133" value="" style="endArrow=classic;html=1;rounded=0;" parent="1" edge="1">
          <mxGeometry width="50" height="50" relative="1" as="geometry">
            <mxPoint x="292" y="319.88" as="sourcePoint" />
            <mxPoint x="332" y="319.88" as="targetPoint" />
          </mxGeometry>
        </mxCell>
        <mxCell id="E21WYbpWhwIhEI5-EvUI-135" value="" style="shape=cube;whiteSpace=wrap;html=1;boundedLbl=1;backgroundOutline=1;darkOpacity=0.05;darkOpacity2=0.1;size=22;direction=east;flipH=1;fillColor=#ffe6cc;strokeColor=#d79b00;container=0;dashed=1;dashPattern=1 4;" parent="1" vertex="1">
          <mxGeometry x="350" y="272.88" width="26" height="70" as="geometry" />
        </mxCell>
        <mxCell id="E21WYbpWhwIhEI5-EvUI-136" value="" style="shape=cube;whiteSpace=wrap;html=1;boundedLbl=1;backgroundOutline=1;darkOpacity=0.05;darkOpacity2=0.1;size=22;direction=east;flipH=1;fillColor=#fff2cc;strokeColor=#d6b656;container=0;dashed=1;dashPattern=1 4;" parent="1" vertex="1">
          <mxGeometry x="329" y="293.88" width="26" height="70" as="geometry" />
        </mxCell>
        <mxCell id="E21WYbpWhwIhEI5-EvUI-141" value="50 x 1536" style="text;html=1;strokeColor=none;fillColor=none;align=center;verticalAlign=middle;whiteSpace=wrap;rounded=0;container=0;" parent="1" vertex="1">
          <mxGeometry x="323" y="250.88" width="99" height="30" as="geometry" />
        </mxCell>
        <mxCell id="E21WYbpWhwIhEI5-EvUI-142" value="CNN" style="rounded=1;whiteSpace=wrap;html=1;textDirection=vertical-rl;fontStyle=1;fillColor=#f5f5f5;fontColor=#333333;strokeColor=none;container=0;" parent="1" vertex="1">
          <mxGeometry x="412" y="289.88" width="50" height="57" as="geometry" />
        </mxCell>
        <mxCell id="E21WYbpWhwIhEI5-EvUI-144" value="" style="endArrow=classic;html=1;rounded=0;entryX=0;entryY=0.5;entryDx=0;entryDy=0;" parent="1" target="E21WYbpWhwIhEI5-EvUI-142" edge="1">
          <mxGeometry width="50" height="50" relative="1" as="geometry">
            <mxPoint x="366" y="318.88" as="sourcePoint" />
            <mxPoint x="406" y="318.88" as="targetPoint" />
          </mxGeometry>
        </mxCell>
        <mxCell id="E21WYbpWhwIhEI5-EvUI-148" value="" style="endArrow=classic;html=1;rounded=0;exitX=1;exitY=0.5;exitDx=0;exitDy=0;entryX=0;entryY=0;entryDx=74;entryDy=5.5;entryPerimeter=0;" parent="1" source="E21WYbpWhwIhEI5-EvUI-142" edge="1">
          <mxGeometry width="50" height="50" relative="1" as="geometry">
            <mxPoint x="472" y="433.88" as="sourcePoint" />
            <mxPoint x="479" y="318.3800000000001" as="targetPoint" />
          </mxGeometry>
        </mxCell>
        <mxCell id="E21WYbpWhwIhEI5-EvUI-170" value="" style="shape=cube;whiteSpace=wrap;html=1;boundedLbl=1;backgroundOutline=1;darkOpacity=0.05;darkOpacity2=0.1;size=3;direction=east;flipH=1;container=0;rotation=-90;" parent="1" vertex="1">
          <mxGeometry x="483.91" y="314.38" width="8" height="8" as="geometry" />
        </mxCell>
        <mxCell id="4f-DMQIj-ya-iA7LCkDa-23" value="" style="shape=cube;whiteSpace=wrap;html=1;boundedLbl=1;backgroundOutline=1;darkOpacity=0.05;darkOpacity2=0.1;size=7;direction=east;flipH=1;fillColor=#dae8fc;strokeColor=#6c8ebf;container=0;" parent="1" vertex="1">
          <mxGeometry x="475" y="490.3769777158774" width="25.81769436997319" height="16.16991643454039" as="geometry" />
        </mxCell>
        <mxCell id="4f-DMQIj-ya-iA7LCkDa-24" value="" style="shape=cube;whiteSpace=wrap;html=1;boundedLbl=1;backgroundOutline=1;darkOpacity=0.05;darkOpacity2=0.1;size=7;direction=east;flipH=1;fillColor=#f8cecc;strokeColor=#b85450;container=0;" parent="1" vertex="1">
          <mxGeometry x="641" y="516.5018523676881" width="25.81769436997319" height="16.16991643454039" as="geometry" />
        </mxCell>
        <mxCell id="4f-DMQIj-ya-iA7LCkDa-26" value="" style="shape=cube;whiteSpace=wrap;html=1;boundedLbl=1;backgroundOutline=1;darkOpacity=0.05;darkOpacity2=0.1;size=7;direction=east;flipH=1;fillColor=#fff2cc;strokeColor=#d6b656;container=0;" parent="1" vertex="1">
          <mxGeometry x="475" y="513.8867270194986" width="25.81769436997319" height="16.16991643454039" as="geometry" />
        </mxCell>
        <mxCell id="4f-DMQIj-ya-iA7LCkDa-50" value="cfDNA fragments mapped to anchor" style="text;html=1;strokeColor=none;fillColor=none;align=left;verticalAlign=middle;whiteSpace=wrap;rounded=0;fontStyle=1;container=0;fontSize=9;" parent="1" vertex="1">
          <mxGeometry x="510.28418230563" y="488" width="118.76139410187668" height="19.306880222841226" as="geometry" />
        </mxCell>
        <mxCell id="4f-DMQIj-ya-iA7LCkDa-51" value="cfDNABERT-2 embeddings" style="text;html=1;strokeColor=none;fillColor=none;align=left;verticalAlign=middle;whiteSpace=wrap;rounded=0;fontStyle=1;container=0;fontSize=9;" parent="1" vertex="1">
          <mxGeometry x="676.28418230563" y="514.1248746518106" width="118.76139410187668" height="19.306880222841226" as="geometry" />
        </mxCell>
        <mxCell id="4f-DMQIj-ya-iA7LCkDa-52" value="mean of embeddings" style="text;html=1;strokeColor=none;fillColor=none;align=left;verticalAlign=middle;whiteSpace=wrap;rounded=0;fontStyle=1;container=0;fontSize=9;" parent="1" vertex="1">
          <mxGeometry x="510.28418230563" y="512.1167548746517" width="118.76139410187668" height="19.306880222841226" as="geometry" />
        </mxCell>
        <mxCell id="E21WYbpWhwIhEI5-EvUI-174" value="" style="shape=cube;whiteSpace=wrap;html=1;boundedLbl=1;backgroundOutline=1;darkOpacity=0.05;darkOpacity2=0.1;size=7;direction=east;flipH=1;fillColor=#d5e8d4;strokeColor=#82b366;container=0;" parent="1" vertex="1">
          <mxGeometry x="641.9544235924933" y="489.5684818941504" width="25.81769436997319" height="16.16991643454039" as="geometry" />
        </mxCell>
        <mxCell id="E21WYbpWhwIhEI5-EvUI-175" value="deeply sequenced healthy cfDNA" style="text;html=1;strokeColor=none;fillColor=none;align=left;verticalAlign=middle;whiteSpace=wrap;rounded=0;fontStyle=1;container=0;fontSize=9;" parent="1" vertex="1">
          <mxGeometry x="677.2386058981233" y="488.808495821727" width="118.76139410187668" height="19.306880222841226" as="geometry" />
        </mxCell>
        <mxCell id="E21WYbpWhwIhEI5-EvUI-194" value="" style="endArrow=none;dashed=1;html=1;dashPattern=8 8;strokeWidth=1;rounded=0;entryX=0.311;entryY=0.999;entryDx=0;entryDy=0;exitX=0.5;exitY=0;exitDx=0;exitDy=0;entryPerimeter=0;" parent="1" source="E21WYbpWhwIhEI5-EvUI-34" target="E21WYbpWhwIhEI5-EvUI-31" edge="1">
          <mxGeometry width="50" height="50" relative="1" as="geometry">
            <mxPoint x="184" y="293.88" as="sourcePoint" />
            <mxPoint x="156" y="208.88" as="targetPoint" />
          </mxGeometry>
        </mxCell>
        <mxCell id="E21WYbpWhwIhEI5-EvUI-195" value="Training of cfDNABERT-2" style="text;html=1;strokeColor=none;fillColor=none;align=left;verticalAlign=middle;whiteSpace=wrap;rounded=0;fontStyle=1;container=0;" parent="1" vertex="1">
          <mxGeometry x="181.5" y="11.88" width="166" height="23.88" as="geometry" />
        </mxCell>
        <mxCell id="E21WYbpWhwIhEI5-EvUI-198" value="" style="endArrow=none;dashed=1;html=1;dashPattern=8 8;strokeWidth=1;rounded=0;entryX=1;entryY=0.25;entryDx=0;entryDy=0;" parent="1" target="E21WYbpWhwIhEI5-EvUI-4" edge="1">
          <mxGeometry width="50" height="50" relative="1" as="geometry">
            <mxPoint x="549" y="85.88" as="sourcePoint" />
            <mxPoint x="185" y="208.88" as="targetPoint" />
          </mxGeometry>
        </mxCell>
        <mxCell id="E21WYbpWhwIhEI5-EvUI-199" value="" style="rounded=1;whiteSpace=wrap;html=1;dashed=1;fillColor=none;container=0;dashPattern=12 12;" parent="1" vertex="1">
          <mxGeometry x="550" y="26.88" width="246" height="217.12" as="geometry" />
        </mxCell>
        <mxCell id="E21WYbpWhwIhEI5-EvUI-200" value="cfDNABERT-2 Architecture" style="text;html=1;strokeColor=none;fillColor=none;align=left;verticalAlign=middle;whiteSpace=wrap;rounded=0;fontStyle=1;container=0;" parent="1" vertex="1">
          <mxGeometry x="595" y="8" width="166" height="23.88" as="geometry" />
        </mxCell>
        <mxCell id="E21WYbpWhwIhEI5-EvUI-201" value="cfDNABERT-2" style="rounded=1;whiteSpace=wrap;html=1;textDirection=vertical-rl;fontStyle=1;fillColor=#f5f5f5;fontColor=#333333;strokeColor=none;container=0;rotation=-90;align=right;" parent="1" vertex="1">
          <mxGeometry x="574.13" y="25.38" width="200.5" height="225.75" as="geometry" />
        </mxCell>
        <mxCell id="E21WYbpWhwIhEI5-EvUI-205" style="edgeStyle=orthogonalEdgeStyle;rounded=0;orthogonalLoop=1;jettySize=auto;html=1;exitX=0;exitY=0;exitDx=94;exitDy=8;exitPerimeter=0;entryX=0.5;entryY=0;entryDx=0;entryDy=0;" parent="1" source="E21WYbpWhwIhEI5-EvUI-203" target="E21WYbpWhwIhEI5-EvUI-204" edge="1">
          <mxGeometry relative="1" as="geometry" />
        </mxCell>
        <mxCell id="E21WYbpWhwIhEI5-EvUI-203" value="" style="shape=cube;whiteSpace=wrap;html=1;boundedLbl=1;backgroundOutline=1;darkOpacity=0.05;darkOpacity2=0.1;size=3;direction=east;flipH=1;fillColor=#d5e8d4;strokeColor=#82b366;movable=1;resizable=1;rotatable=1;deletable=1;editable=1;locked=0;connectable=1;" parent="1" vertex="1">
          <mxGeometry x="580.5" y="56.88" width="185" height="8" as="geometry" />
        </mxCell>
        <mxCell id="E21WYbpWhwIhEI5-EvUI-204" value="Byte-Pair Encoding Tokenizer" style="rounded=1;whiteSpace=wrap;html=1;" parent="1" vertex="1">
          <mxGeometry x="571.5" y="79" width="203" height="17" as="geometry" />
        </mxCell>
        <mxCell id="E21WYbpWhwIhEI5-EvUI-228" value="" style="endArrow=classic;html=1;rounded=0;exitX=0.426;exitY=0.498;exitDx=0;exitDy=0;exitPerimeter=0;" parent="1" edge="1">
          <mxGeometry width="50" height="50" relative="1" as="geometry">
            <mxPoint x="672.9235" y="118.94749999999999" as="sourcePoint" />
            <mxPoint x="673" y="133" as="targetPoint" />
          </mxGeometry>
        </mxCell>
        <mxCell id="E21WYbpWhwIhEI5-EvUI-206" value="Encoder" style="rounded=1;whiteSpace=wrap;html=1;" parent="1" vertex="1">
          <mxGeometry x="573" y="133" width="203" height="17" as="geometry" />
        </mxCell>
        <mxCell id="E21WYbpWhwIhEI5-EvUI-221" value="" style="group" parent="1" vertex="1" connectable="0">
          <mxGeometry x="636" y="111" width="75" height="8" as="geometry" />
        </mxCell>
        <mxCell id="E21WYbpWhwIhEI5-EvUI-209" value="" style="shape=cube;whiteSpace=wrap;html=1;boundedLbl=1;backgroundOutline=1;darkOpacity=0.05;darkOpacity2=0.1;size=3;direction=east;flipH=1;fillColor=#f5f5f5;strokeColor=#666666;movable=1;resizable=1;rotatable=1;deletable=1;editable=1;locked=0;connectable=1;fontColor=#333333;" parent="E21WYbpWhwIhEI5-EvUI-221" vertex="1">
          <mxGeometry width="9" height="8" as="geometry" />
        </mxCell>
        <mxCell id="E21WYbpWhwIhEI5-EvUI-210" value="" style="shape=cube;whiteSpace=wrap;html=1;boundedLbl=1;backgroundOutline=1;darkOpacity=0.05;darkOpacity2=0.1;size=3;direction=east;flipH=1;fillColor=#f5f5f5;strokeColor=#666666;movable=1;resizable=1;rotatable=1;deletable=1;editable=1;locked=0;connectable=1;fontColor=#333333;" parent="E21WYbpWhwIhEI5-EvUI-221" vertex="1">
          <mxGeometry x="6" width="9" height="8" as="geometry" />
        </mxCell>
        <mxCell id="E21WYbpWhwIhEI5-EvUI-211" value="" style="shape=cube;whiteSpace=wrap;html=1;boundedLbl=1;backgroundOutline=1;darkOpacity=0.05;darkOpacity2=0.1;size=3;direction=east;flipH=1;fillColor=#f5f5f5;strokeColor=#666666;movable=1;resizable=1;rotatable=1;deletable=1;editable=1;locked=0;connectable=1;fontColor=#333333;" parent="E21WYbpWhwIhEI5-EvUI-221" vertex="1">
          <mxGeometry x="12" width="9" height="8" as="geometry" />
        </mxCell>
        <mxCell id="E21WYbpWhwIhEI5-EvUI-212" value="" style="shape=cube;whiteSpace=wrap;html=1;boundedLbl=1;backgroundOutline=1;darkOpacity=0.05;darkOpacity2=0.1;size=3;direction=east;flipH=1;fillColor=#f5f5f5;strokeColor=#666666;movable=1;resizable=1;rotatable=1;deletable=1;editable=1;locked=0;connectable=1;fontColor=#333333;" parent="E21WYbpWhwIhEI5-EvUI-221" vertex="1">
          <mxGeometry x="18" width="9" height="8" as="geometry" />
        </mxCell>
        <mxCell id="E21WYbpWhwIhEI5-EvUI-213" value="" style="shape=cube;whiteSpace=wrap;html=1;boundedLbl=1;backgroundOutline=1;darkOpacity=0.05;darkOpacity2=0.1;size=3;direction=east;flipH=1;fillColor=#f5f5f5;strokeColor=#666666;movable=1;resizable=1;rotatable=1;deletable=1;editable=1;locked=0;connectable=1;fontColor=#333333;" parent="E21WYbpWhwIhEI5-EvUI-221" vertex="1">
          <mxGeometry x="24" width="9" height="8" as="geometry" />
        </mxCell>
        <mxCell id="E21WYbpWhwIhEI5-EvUI-214" value="" style="shape=cube;whiteSpace=wrap;html=1;boundedLbl=1;backgroundOutline=1;darkOpacity=0.05;darkOpacity2=0.1;size=3;direction=east;flipH=1;fillColor=#f5f5f5;strokeColor=#666666;movable=1;resizable=1;rotatable=1;deletable=1;editable=1;locked=0;connectable=1;fontColor=#333333;" parent="E21WYbpWhwIhEI5-EvUI-221" vertex="1">
          <mxGeometry x="30" width="9" height="8" as="geometry" />
        </mxCell>
        <mxCell id="E21WYbpWhwIhEI5-EvUI-215" value="" style="shape=cube;whiteSpace=wrap;html=1;boundedLbl=1;backgroundOutline=1;darkOpacity=0.05;darkOpacity2=0.1;size=3;direction=east;flipH=1;fillColor=#f5f5f5;strokeColor=#666666;movable=1;resizable=1;rotatable=1;deletable=1;editable=1;locked=0;connectable=1;fontColor=#333333;" parent="E21WYbpWhwIhEI5-EvUI-221" vertex="1">
          <mxGeometry x="36" width="9" height="8" as="geometry" />
        </mxCell>
        <mxCell id="E21WYbpWhwIhEI5-EvUI-216" value="" style="shape=cube;whiteSpace=wrap;html=1;boundedLbl=1;backgroundOutline=1;darkOpacity=0.05;darkOpacity2=0.1;size=3;direction=east;flipH=1;fillColor=#f5f5f5;strokeColor=#666666;movable=1;resizable=1;rotatable=1;deletable=1;editable=1;locked=0;connectable=1;fontColor=#333333;" parent="E21WYbpWhwIhEI5-EvUI-221" vertex="1">
          <mxGeometry x="42" width="9" height="8" as="geometry" />
        </mxCell>
        <mxCell id="E21WYbpWhwIhEI5-EvUI-217" value="" style="shape=cube;whiteSpace=wrap;html=1;boundedLbl=1;backgroundOutline=1;darkOpacity=0.05;darkOpacity2=0.1;size=3;direction=east;flipH=1;fillColor=#f5f5f5;strokeColor=#666666;movable=1;resizable=1;rotatable=1;deletable=1;editable=1;locked=0;connectable=1;fontColor=#333333;" parent="E21WYbpWhwIhEI5-EvUI-221" vertex="1">
          <mxGeometry x="48" width="9" height="8" as="geometry" />
        </mxCell>
        <mxCell id="E21WYbpWhwIhEI5-EvUI-218" value="" style="shape=cube;whiteSpace=wrap;html=1;boundedLbl=1;backgroundOutline=1;darkOpacity=0.05;darkOpacity2=0.1;size=3;direction=east;flipH=1;fillColor=#f5f5f5;strokeColor=#666666;movable=1;resizable=1;rotatable=1;deletable=1;editable=1;locked=0;connectable=1;fontColor=#333333;" parent="E21WYbpWhwIhEI5-EvUI-221" vertex="1">
          <mxGeometry x="54" width="9" height="8" as="geometry" />
        </mxCell>
        <mxCell id="E21WYbpWhwIhEI5-EvUI-219" value="" style="shape=cube;whiteSpace=wrap;html=1;boundedLbl=1;backgroundOutline=1;darkOpacity=0.05;darkOpacity2=0.1;size=3;direction=east;flipH=1;fillColor=#f5f5f5;strokeColor=#666666;movable=1;resizable=1;rotatable=1;deletable=1;editable=1;locked=0;connectable=1;fontColor=#333333;" parent="E21WYbpWhwIhEI5-EvUI-221" vertex="1">
          <mxGeometry x="60" width="9" height="8" as="geometry" />
        </mxCell>
        <mxCell id="E21WYbpWhwIhEI5-EvUI-220" value="" style="shape=cube;whiteSpace=wrap;html=1;boundedLbl=1;backgroundOutline=1;darkOpacity=0.05;darkOpacity2=0.1;size=3;direction=east;flipH=1;fillColor=#f5f5f5;strokeColor=#666666;movable=1;resizable=1;rotatable=1;deletable=1;editable=1;locked=0;connectable=1;fontColor=#333333;" parent="E21WYbpWhwIhEI5-EvUI-221" vertex="1">
          <mxGeometry x="66" width="9" height="8" as="geometry" />
        </mxCell>
        <mxCell id="E21WYbpWhwIhEI5-EvUI-226" style="edgeStyle=orthogonalEdgeStyle;rounded=0;orthogonalLoop=1;jettySize=auto;html=1;exitX=0;exitY=0;exitDx=94;exitDy=8;exitPerimeter=0;entryX=0.5;entryY=0;entryDx=0;entryDy=0;" parent="1" edge="1">
          <mxGeometry relative="1" as="geometry">
            <mxPoint x="672" y="96" as="sourcePoint" />
            <mxPoint x="673" y="110" as="targetPoint" />
          </mxGeometry>
        </mxCell>
        <mxCell id="E21WYbpWhwIhEI5-EvUI-229" value="" style="endArrow=classic;html=1;rounded=0;exitX=0.426;exitY=0.498;exitDx=0;exitDy=0;exitPerimeter=0;" parent="1" edge="1">
          <mxGeometry width="50" height="50" relative="1" as="geometry">
            <mxPoint x="674" y="150" as="sourcePoint" />
            <mxPoint x="674" y="164" as="targetPoint" />
          </mxGeometry>
        </mxCell>
        <mxCell id="E21WYbpWhwIhEI5-EvUI-293" value="1 x 50" style="text;html=1;strokeColor=none;fillColor=none;align=center;verticalAlign=middle;whiteSpace=wrap;rounded=0;container=0;" parent="1" vertex="1">
          <mxGeometry x="691" y="100" width="99" height="30" as="geometry" />
        </mxCell>
        <mxCell id="E21WYbpWhwIhEI5-EvUI-294" value="" style="shape=cube;whiteSpace=wrap;html=1;boundedLbl=1;backgroundOutline=1;darkOpacity=0.05;darkOpacity2=0.1;size=4;direction=east;flipH=1;fillColor=#f8cecc;strokeColor=#b85450;container=0;" parent="1" vertex="1">
          <mxGeometry x="646" y="171" width="59" height="57" as="geometry" />
        </mxCell>
        <mxCell id="E21WYbpWhwIhEI5-EvUI-295" value="50 x 768" style="text;html=1;strokeColor=none;fillColor=none;align=center;verticalAlign=middle;whiteSpace=wrap;rounded=0;container=0;" parent="1" vertex="1">
          <mxGeometry x="693" y="183" width="99" height="30" as="geometry" />
        </mxCell>
        <mxCell id="E21WYbpWhwIhEI5-EvUI-296" value="" style="shape=cube;whiteSpace=wrap;html=1;boundedLbl=1;backgroundOutline=1;darkOpacity=0.05;darkOpacity2=0.1;size=7;direction=east;flipH=1;fillColor=#ffe6cc;strokeColor=#d79b00;container=0;" parent="1" vertex="1">
          <mxGeometry x="475" y="539.1167270194986" width="25.81769436997319" height="16.16991643454039" as="geometry" />
        </mxCell>
        <mxCell id="E21WYbpWhwIhEI5-EvUI-297" value="" style="edgeStyle=orthogonalEdgeStyle;rounded=0;orthogonalLoop=1;jettySize=auto;html=1;" parent="1" source="E21WYbpWhwIhEI5-EvUI-61" target="E21WYbpWhwIhEI5-EvUI-3" edge="1">
          <mxGeometry relative="1" as="geometry" />
        </mxCell>
        <mxCell id="E21WYbpWhwIhEI5-EvUI-61" value="" style="rounded=1;whiteSpace=wrap;html=1;textDirection=vertical-rl;fontStyle=1;fillColor=none;fontColor=#333333;strokeColor=default;movable=1;resizable=1;rotatable=1;deletable=1;editable=1;locked=0;connectable=1;" parent="1" vertex="1">
          <mxGeometry x="52" y="56.88" width="99" height="120" as="geometry" />
        </mxCell>
        <mxCell id="E21WYbpWhwIhEI5-EvUI-62" value="" style="shape=cube;whiteSpace=wrap;html=1;boundedLbl=1;backgroundOutline=1;darkOpacity=0.05;darkOpacity2=0.1;size=3;direction=east;flipH=1;fillColor=#d5e8d4;strokeColor=#82b366;movable=1;resizable=1;rotatable=1;deletable=1;editable=1;locked=0;connectable=1;" parent="1" vertex="1">
          <mxGeometry x="97" y="106.88" width="38" height="8" as="geometry" />
        </mxCell>
        <mxCell id="E21WYbpWhwIhEI5-EvUI-63" value="" style="shape=cube;whiteSpace=wrap;html=1;boundedLbl=1;backgroundOutline=1;darkOpacity=0.05;darkOpacity2=0.1;size=3;direction=east;flipH=1;fillColor=#d5e8d4;strokeColor=#82b366;movable=1;resizable=1;rotatable=1;deletable=1;editable=1;locked=0;connectable=1;" parent="1" vertex="1">
          <mxGeometry x="61" y="95.88" width="38" height="8" as="geometry" />
        </mxCell>
        <mxCell id="E21WYbpWhwIhEI5-EvUI-64" value="" style="shape=cube;whiteSpace=wrap;html=1;boundedLbl=1;backgroundOutline=1;darkOpacity=0.05;darkOpacity2=0.1;size=3;direction=east;flipH=1;fillColor=#d5e8d4;strokeColor=#82b366;movable=1;resizable=1;rotatable=1;deletable=1;editable=1;locked=0;connectable=1;" parent="1" vertex="1">
          <mxGeometry x="91" y="84.88" width="38" height="8" as="geometry" />
        </mxCell>
        <mxCell id="E21WYbpWhwIhEI5-EvUI-65" value="" style="shape=cube;whiteSpace=wrap;html=1;boundedLbl=1;backgroundOutline=1;darkOpacity=0.05;darkOpacity2=0.1;size=3;direction=east;flipH=1;fillColor=#d5e8d4;strokeColor=#82b366;movable=1;resizable=1;rotatable=1;deletable=1;editable=1;locked=0;connectable=1;" parent="1" vertex="1">
          <mxGeometry x="69" y="144.88" width="38" height="8" as="geometry" />
        </mxCell>
        <mxCell id="E21WYbpWhwIhEI5-EvUI-66" value="" style="shape=cube;whiteSpace=wrap;html=1;boundedLbl=1;backgroundOutline=1;darkOpacity=0.05;darkOpacity2=0.1;size=3;direction=east;flipH=1;fillColor=#d5e8d4;strokeColor=#82b366;movable=1;resizable=1;rotatable=1;deletable=1;editable=1;locked=0;connectable=1;" parent="1" vertex="1">
          <mxGeometry x="56" y="113.88" width="38" height="8" as="geometry" />
        </mxCell>
        <mxCell id="E21WYbpWhwIhEI5-EvUI-67" value="" style="shape=cube;whiteSpace=wrap;html=1;boundedLbl=1;backgroundOutline=1;darkOpacity=0.05;darkOpacity2=0.1;size=3;direction=east;flipH=1;fillColor=#d5e8d4;strokeColor=#82b366;movable=1;resizable=1;rotatable=1;deletable=1;editable=1;locked=0;connectable=1;" parent="1" vertex="1">
          <mxGeometry x="107" y="155.88" width="38" height="8" as="geometry" />
        </mxCell>
        <mxCell id="E21WYbpWhwIhEI5-EvUI-68" value="" style="shape=cube;whiteSpace=wrap;html=1;boundedLbl=1;backgroundOutline=1;darkOpacity=0.05;darkOpacity2=0.1;size=3;direction=east;flipH=1;fillColor=#d5e8d4;strokeColor=#82b366;movable=1;resizable=1;rotatable=1;deletable=1;editable=1;locked=0;connectable=1;" parent="1" vertex="1">
          <mxGeometry x="56" y="156.88" width="38" height="8" as="geometry" />
        </mxCell>
        <mxCell id="E21WYbpWhwIhEI5-EvUI-69" value="" style="shape=cube;whiteSpace=wrap;html=1;boundedLbl=1;backgroundOutline=1;darkOpacity=0.05;darkOpacity2=0.1;size=3;direction=east;flipH=1;fillColor=#d5e8d4;strokeColor=#82b366;movable=1;resizable=1;rotatable=1;deletable=1;editable=1;locked=0;connectable=1;" parent="1" vertex="1">
          <mxGeometry x="108" y="120.88" width="38" height="8" as="geometry" />
        </mxCell>
        <mxCell id="E21WYbpWhwIhEI5-EvUI-70" value="" style="shape=cube;whiteSpace=wrap;html=1;boundedLbl=1;backgroundOutline=1;darkOpacity=0.05;darkOpacity2=0.1;size=3;direction=east;flipH=1;fillColor=#d5e8d4;strokeColor=#82b366;movable=1;resizable=1;rotatable=1;deletable=1;editable=1;locked=0;connectable=1;" parent="1" vertex="1">
          <mxGeometry x="109" y="135.88" width="38" height="8" as="geometry" />
        </mxCell>
        <mxCell id="E21WYbpWhwIhEI5-EvUI-71" value="" style="shape=cube;whiteSpace=wrap;html=1;boundedLbl=1;backgroundOutline=1;darkOpacity=0.05;darkOpacity2=0.1;size=3;direction=east;flipH=1;fillColor=#d5e8d4;strokeColor=#82b366;movable=1;resizable=1;rotatable=1;deletable=1;editable=1;locked=0;connectable=1;" parent="1" vertex="1">
          <mxGeometry x="67" y="131.88" width="38" height="8" as="geometry" />
        </mxCell>
        <mxCell id="E21WYbpWhwIhEI5-EvUI-72" value="" style="shape=cube;whiteSpace=wrap;html=1;boundedLbl=1;backgroundOutline=1;darkOpacity=0.05;darkOpacity2=0.1;size=3;direction=east;flipH=1;fillColor=#d5e8d4;strokeColor=#82b366;movable=1;resizable=1;rotatable=1;deletable=1;editable=1;locked=0;connectable=1;" parent="1" vertex="1">
          <mxGeometry x="101" y="66.88" width="38" height="8" as="geometry" />
        </mxCell>
        <mxCell id="E21WYbpWhwIhEI5-EvUI-73" value="" style="shape=cube;whiteSpace=wrap;html=1;boundedLbl=1;backgroundOutline=1;darkOpacity=0.05;darkOpacity2=0.1;size=3;direction=east;flipH=1;fillColor=#d5e8d4;strokeColor=#82b366;movable=1;resizable=1;rotatable=1;deletable=1;editable=1;locked=0;connectable=1;" parent="1" vertex="1">
          <mxGeometry x="60" y="72.88" width="38" height="8" as="geometry" />
        </mxCell>
        <mxCell id="GqzRu7OVLZyEap2CrHDT-4" style="edgeStyle=orthogonalEdgeStyle;rounded=0;orthogonalLoop=1;jettySize=auto;html=1;exitX=1;exitY=0.5;exitDx=0;exitDy=0;entryX=0.996;entryY=0.487;entryDx=0;entryDy=0;entryPerimeter=0;" edge="1" parent="1" source="E21WYbpWhwIhEI5-EvUI-34" target="E21WYbpWhwIhEI5-EvUI-119">
          <mxGeometry relative="1" as="geometry" />
        </mxCell>
        <mxCell id="GqzRu7OVLZyEap2CrHDT-5" style="edgeStyle=orthogonalEdgeStyle;rounded=0;orthogonalLoop=1;jettySize=auto;html=1;exitX=1;exitY=0.5;exitDx=0;exitDy=0;" edge="1" parent="1" source="E21WYbpWhwIhEI5-EvUI-89" target="E21WYbpWhwIhEI5-EvUI-34">
          <mxGeometry relative="1" as="geometry" />
        </mxCell>
      </root>
    </mxGraphModel>
  </diagram>
</mxfile>
